<?xml version="1.0"?>
<mxfile host="Electron" modified="2022-06-09T17:40:50.860Z" agent="5.0 (X11; Linux x86_64) AppleWebKit/537.36 (KHTML, like Gecko) draw.io/18.1.3 Chrome/100.0.4896.143 Electron/18.2.3 Safari/537.36" etag="m9BuGFsr5YdfB3qzfji1" version="18.1.3">
  <diagram id="EjLPqHsa3jpSlwRIpOHd" name="Page-1">
    <mxGraphModel dx="2" dy="1" grid="1" gridSize="10" guides="1" tooltips="1" connect="1" arrows="1" fold="1" page="1" pageScale="1" pageWidth="850" pageHeight="1100" math="0" shadow="0">
      <root>
        <mxCell id="0"/>
        <mxCell id="1" parent="0"/>
        <mxCell id="7wEON-A_uksUDM_9zc6X-8" value="" style="rounded=0;whiteSpace=wrap;html=1;fillColor=#f5f5f5;fontColor=#333333;strokeColor=#666666;shadow=0;sketch=1;" parent="1" vertex="1">
          <mxGeometry x="230" y="50" width="100" height="70" as="geometry"/>
        </mxCell>
        <mxCell id="7wEON-A_uksUDM_9zc6X-1" value="" style="rounded=0;whiteSpace=wrap;html=1;fillColor=#f5f5f5;fontColor=#333333;strokeColor=#666666;shadow=0;sketch=1;" parent="1" vertex="1">
          <mxGeometry x="50" y="40" width="140" height="80" as="geometry"/>
        </mxCell>
        <mxCell id="ebRtPLUAJEtyJmq57kZH-1" value="&lt;font face=&quot;LXGW WenKai&quot; data-font-src=&quot;https://fonts.googleapis.com/css?family=Long_Cang&quot;&gt;&#x5BA2;&#x6237;&#x6307;&#x4EE4;&lt;br&gt;guest insts&lt;/font&gt;" style="rounded=0;whiteSpace=wrap;html=1;fillColor=#f8cecc;strokeColor=#b85450;sketch=1;" parent="1" vertex="1">
          <mxGeometry x="80" y="80" width="80" height="40" as="geometry"/>
        </mxCell>
        <mxCell id="gWKpB0-yFn6ezKFDobbg-1" value="&lt;font data-font-src=&quot;https://fonts.googleapis.com/css?family=Long_Cang&quot; face=&quot;LXGW WenKai&quot;&gt;&#x5BBF;&#x4E3B;&#x6307;&#x4EE4;&lt;br&gt;host insts&lt;/font&gt;" style="rounded=0;whiteSpace=wrap;html=1;fillColor=#dae8fc;strokeColor=#6c8ebf;sketch=1;" parent="1" vertex="1">
          <mxGeometry x="80" y="210" width="80" height="40" as="geometry"/>
        </mxCell>
        <mxCell id="gWKpB0-yFn6ezKFDobbg-2" value="" style="endArrow=classic;html=1;rounded=0;fillColor=#d5e8d4;strokeColor=#82b366;sketch=1;" parent="1" source="gWKpB0-yFn6ezKFDobbg-3" target="gWKpB0-yFn6ezKFDobbg-1" edge="1">
          <mxGeometry width="50" height="50" relative="1" as="geometry">
            <mxPoint x="160" y="170" as="sourcePoint"/>
            <mxPoint x="270" y="220" as="targetPoint"/>
          </mxGeometry>
        </mxCell>
        <mxCell id="gWKpB0-yFn6ezKFDobbg-3" value="&lt;font data-font-src=&quot;https://fonts.googleapis.com/css?family=Long_Cang&quot; face=&quot;LXGW WenKai&quot;&gt;&#x7CFB;&#x7EDF;&#x7EA7;&#x4E8C;&#x8FDB;&#x5236;&#x7FFB;&#x8BD1;&lt;br&gt;system-level binary translate&lt;/font&gt;" style="rounded=1;whiteSpace=wrap;html=1;fillColor=#d5e8d4;strokeColor=#82b366;sketch=1;" parent="1" vertex="1">
          <mxGeometry x="60" y="140" width="120" height="50" as="geometry"/>
        </mxCell>
        <mxCell id="gWKpB0-yFn6ezKFDobbg-4" value="" style="endArrow=classic;html=1;rounded=0;fillColor=#d5e8d4;strokeColor=#82b366;sketch=1;" parent="1" source="ebRtPLUAJEtyJmq57kZH-1" target="gWKpB0-yFn6ezKFDobbg-3" edge="1">
          <mxGeometry width="50" height="50" relative="1" as="geometry">
            <mxPoint x="310" y="110" as="sourcePoint"/>
            <mxPoint x="350" y="110" as="targetPoint"/>
          </mxGeometry>
        </mxCell>
        <mxCell id="7wEON-A_uksUDM_9zc6X-2" value="&#x64CD;&#x4F5C;&#x7CFB;&#x7EDF;" style="text;html=1;align=center;verticalAlign=middle;resizable=0;points=[];autosize=1;strokeColor=none;fillColor=none;" parent="1" vertex="1">
          <mxGeometry x="90" y="50" width="60" height="20" as="geometry"/>
        </mxCell>
        <mxCell id="7wEON-A_uksUDM_9zc6X-3" value="&lt;font face=&quot;LXGW WenKai&quot; data-font-src=&quot;https://fonts.googleapis.com/css?family=Long_Cang&quot;&gt;&#x5BA2;&#x6237;&#x6307;&#x4EE4;&lt;br&gt;guest insts&lt;/font&gt;" style="rounded=0;whiteSpace=wrap;html=1;fillColor=#f8cecc;strokeColor=#b85450;sketch=1;" parent="1" vertex="1">
          <mxGeometry x="240" y="80" width="80" height="40" as="geometry"/>
        </mxCell>
        <mxCell id="7wEON-A_uksUDM_9zc6X-4" value="&lt;font data-font-src=&quot;https://fonts.googleapis.com/css?family=Long_Cang&quot; face=&quot;LXGW WenKai&quot;&gt;&#x5BBF;&#x4E3B;&#x6307;&#x4EE4;&lt;br&gt;host insts&lt;/font&gt;" style="rounded=0;whiteSpace=wrap;html=1;fillColor=#dae8fc;strokeColor=#6c8ebf;sketch=1;" parent="1" vertex="1">
          <mxGeometry x="240" y="210" width="80" height="40" as="geometry"/>
        </mxCell>
        <mxCell id="7wEON-A_uksUDM_9zc6X-5" value="" style="endArrow=classic;html=1;rounded=0;fillColor=#d5e8d4;strokeColor=#82b366;sketch=1;" parent="1" source="7wEON-A_uksUDM_9zc6X-6" target="7wEON-A_uksUDM_9zc6X-4" edge="1">
          <mxGeometry width="50" height="50" relative="1" as="geometry">
            <mxPoint x="320" y="170" as="sourcePoint"/>
            <mxPoint x="430" y="220" as="targetPoint"/>
          </mxGeometry>
        </mxCell>
        <mxCell id="7wEON-A_uksUDM_9zc6X-6" value="&lt;font data-font-src=&quot;https://fonts.googleapis.com/css?family=Long_Cang&quot; face=&quot;LXGW WenKai&quot;&gt;&#x7528;&#x6237;&#x7EA7;&#x4E8C;&#x8FDB;&#x5236;&#x7FFB;&#x8BD1;&lt;br&gt;user-level binary translate&lt;/font&gt;" style="rounded=1;whiteSpace=wrap;html=1;fillColor=#d5e8d4;strokeColor=#82b366;sketch=1;" parent="1" vertex="1">
          <mxGeometry x="220" y="140" width="120" height="50" as="geometry"/>
        </mxCell>
        <mxCell id="7wEON-A_uksUDM_9zc6X-7" value="" style="endArrow=classic;html=1;rounded=0;fillColor=#d5e8d4;strokeColor=#82b366;sketch=1;" parent="1" source="7wEON-A_uksUDM_9zc6X-3" target="7wEON-A_uksUDM_9zc6X-6" edge="1">
          <mxGeometry width="50" height="50" relative="1" as="geometry">
            <mxPoint x="470" y="110" as="sourcePoint"/>
            <mxPoint x="510" y="110" as="targetPoint"/>
          </mxGeometry>
        </mxCell>
        <mxCell id="7wEON-A_uksUDM_9zc6X-9" value="&#x7528;&#x6237;&#x7A0B;&#x5E8F;" style="text;html=1;align=center;verticalAlign=middle;resizable=0;points=[];autosize=1;strokeColor=none;fillColor=none;" parent="1" vertex="1">
          <mxGeometry x="250" y="50" width="60" height="20" as="geometry"/>
        </mxCell>
        <mxCell id="7wEON-A_uksUDM_9zc6X-10" value="&lt;b&gt;&#x7CFB;&#x7EDF;&#x7EA7;&#x4E8C;&#x8FDB;&#x5236;&#x7FFB;&#x8BD1;&lt;/b&gt;" style="text;html=1;align=center;verticalAlign=middle;resizable=0;points=[];autosize=1;strokeColor=none;fillColor=none;" parent="1" vertex="1">
          <mxGeometry x="65" y="20" width="110" height="20" as="geometry"/>
        </mxCell>
        <mxCell id="7wEON-A_uksUDM_9zc6X-11" value="&lt;b&gt;&#x7528;&#x6237;&#x7EA7;&#x4E8C;&#x8FDB;&#x5236;&#x7FFB;&#x8BD1;&lt;/b&gt;" style="text;html=1;align=center;verticalAlign=middle;resizable=0;points=[];autosize=1;strokeColor=none;fillColor=none;" parent="1" vertex="1">
          <mxGeometry x="225" y="20" width="110" height="20" as="geometry"/>
        </mxCell>
      </root>
    </mxGraphModel>
  </diagram>
</mxfile>
